<svg xmlns="http://www.w3.org/2000/svg" viewBox="0 0 139.53 139.53"><defs><style>.cls-1{fill:none;stroke:#617ab9;stroke-miterlimit:10;}.cls-2{fill:#617ab9;}</style></defs><title>Ativo 1</title><g id="Camada_2" data-name="Camada 2"><g id="Camada_1-2" data-name="Camada 1"><path class="cls-1" d="M69.76,139A69.27,69.27,0,1,0,.5,69.77,69.27,69.27,0,0,0,69.76,139"/><path class="cls-2" d="M53.05,58h7.16v-7c0-3.07.08-7.8,2.31-10.74,2.35-3.1,5.57-5.21,11.12-5.21,9,0,12.83,1.29,12.83,1.29L84.68,47a24.19,24.19,0,0,0-5.76-.86c-2.79,0-5.28,1-5.28,3.78V58H85.06l-.8,10.36H73.64v36H60.21v-36H53.05Z"/></g></g></svg>