<svg xmlns="http://www.w3.org/2000/svg" viewBox="0 0 139.53 139.53"><defs><style>.cls-1{fill:none;stroke:#c9483c;stroke-miterlimit:10;}.cls-2{fill:#c9483c;}</style></defs><title>Ativo 2</title><g id="Camada_2" data-name="Camada 2"><g id="Camada_1-2" data-name="Camada 1"><path class="cls-1" d="M69.77,139A69.27,69.27,0,1,0,.5,69.76,69.26,69.26,0,0,0,69.77,139"/><path class="cls-2" d="M81.36,69.77a26.64,26.64,0,1,1-8.65-19.65l-7.52,7.53a16,16,0,1,0,4.64,17.43H54.72V64.45H80.83A26.66,26.66,0,0,1,81.36,69.77Z"/><polygon class="cls-2" points="111.44 64.8 111.44 71.42 102.27 71.42 102.27 80.59 95.65 80.59 95.65 71.42 86.48 71.42 86.48 64.8 95.65 64.8 95.65 55.63 102.27 55.63 102.27 64.8 111.44 64.8"/></g></g></svg>