<svg xmlns="http://www.w3.org/2000/svg" viewBox="0 0 139.53 139.53"><defs><style>.cls-1{fill:none;stroke:#4d83c3;stroke-miterlimit:10;}.cls-2{fill:#4d83c3;}</style></defs><title>Ativo 3</title><g id="Camada_2" data-name="Camada 2"><g id="Camada_1-2" data-name="Camada 1"><path class="cls-1" d="M69.76,139A69.27,69.27,0,1,0,.5,69.76,69.27,69.27,0,0,0,69.76,139"/><path class="cls-2" d="M50.38,98.73H36.88V55.52h13.5Zm-7.1-48.61h-.1c-4.88,0-8-3.3-8-7.48s3.26-7.51,8.25-7.51,8,3.23,8.14,7.49S48.36,50.12,43.28,50.12Zm61.11,48.61H89.08V76.37c0-5.85-2.39-9.84-7.66-9.84-4,0-6.26,2.69-7.3,5.29a9.94,9.94,0,0,0-.33,3.53V98.73H58.62s.2-39.6,0-43.21H73.79v6.79c.89-3,5.74-7.2,13.47-7.2,9.6,0,17.13,6.22,17.13,19.6Z"/></g></g></svg>