<svg xmlns="http://www.w3.org/2000/svg" viewBox="0 0 113.79 36.08"><defs><style>.cls-1{fill:#fff;}</style></defs><title>Ativo 4</title><g id="Camada_2" data-name="Camada 2"><g id="Camada_1-2" data-name="Camada 1"><path class="cls-1" d="M.16.27H3.64V16.08H.16Z"/><path class="cls-1" d="M6.39,6.12C8,6,8.72,5.17,8.6,3.88H7.2V.27h3.66V3.32c0,3-1.49,4.18-4.18,4.22Z"/><path class="cls-1" d="M14.05.27h3.74L22,7,26.1.27h3.75V16.08H26.4V5.76L22,12.51h-.09l-4.4-6.68V16.08H14.05Z"/><path class="cls-1" d="M33.65.27h12V3.43H37.12V6.8h7.55V10H37.12v6.12H33.65Z"/><path class="cls-1" d="M48.46.27h7.23a6.3,6.3,0,0,1,4.6,1.6,5,5,0,0,1,1.36,3.62v0a4.91,4.91,0,0,1-3.39,4.9l3.86,5.65H58.06L54.67,11H51.94v5.06H48.46Zm7,7.68c1.7,0,2.67-.9,2.67-2.24v0c0-1.49-1-2.26-2.74-2.26H51.94V8Z"/><path class="cls-1" d="M64.09,8.22v0a8.4,8.4,0,0,1,16.8,0v0a8.4,8.4,0,0,1-16.8,0Zm13.16,0v0a4.8,4.8,0,0,0-4.78-5,4.73,4.73,0,0,0-4.75,4.92v0a4.8,4.8,0,0,0,4.79,5A4.72,4.72,0,0,0,77.25,8.22Z"/><path class="cls-1" d="M84,.27h3.21L94.6,10V.27H98V16.08h-3L87.42,6v10H84Z"/><path class="cls-1" d="M105.5,3.48h-4.81V.27h13.1V3.48H109v12.6H105.5Z"/><path class="cls-1" d="M0,20.27H11.92v3.09H3.46v3.21h7.45v3.1H3.46V33H12v3.09H0Z"/><path class="cls-1" d="M15.13,20.27h3.21L25.74,30V20.27h3.44V36.08h-3L18.56,26v10H15.13Z"/><path class="cls-1" d="M33,20.27h6.16c5,0,8.41,3.41,8.41,7.86v.05c0,4.44-3.44,7.9-8.41,7.9H33Zm6.16,12.67a4.51,4.51,0,0,0,4.77-4.72v0a4.54,4.54,0,0,0-4.77-4.77H36.45v9.53Z"/></g></g></svg>